<svg width="59" height="61" viewBox="0 0 59 61" fill="none" xmlns="http://www.w3.org/2000/svg">
<path d="M31.7464 4.33475H20.3098C19.2622 4.33475 18.4037 5.09736 18.4037 6.02801V43.2797C18.4037 44.2104 19.2622 44.973 20.3098 44.973H31.7464C32.794 44.973 33.6525 44.2104 33.6525 43.2797V6.02801C33.6525 5.09736 32.794 4.33475 31.7464 4.33475ZM29.8403 14.4943H22.2159V11.1078H29.8403V14.4943Z" fill="#4D2959"/>
<path d="M46.5406 2.21856L35.4937 5.15144C34.4817 5.42011 33.8517 6.37689 34.0948 7.27582L43.8254 43.2582C44.0685 44.1571 45.0969 44.6736 46.1089 44.405L57.1558 41.4721C58.1677 41.2034 58.7977 40.2466 58.5546 39.3477L48.824 3.3653C48.5809 2.46637 47.5525 1.94989 46.5406 2.21856ZM47.3532 12.5207L39.9886 14.476L39.104 11.2049L46.4686 9.24962L47.3532 12.5207Z" fill="#4D2959"/>
<path d="M13.3427 4.33475H1.9061C0.858472 4.33475 0 5.09736 0 6.02801V43.2797C0 44.2104 0.858472 44.973 1.9061 44.973H13.3427C14.3903 44.973 15.2488 44.2104 15.2488 43.2797V6.02801C15.2488 5.09736 14.3903 4.33475 13.3427 4.33475ZM11.4366 14.4943H3.8122V11.1078H11.4366V14.4943Z" fill="#4D2959"/>
<line x1="59" y1="48.5" x2="0.00309372" y2="48.5" stroke="#4D2959"/>
<line x1="58.9969" y1="0.5" y2="0.5" stroke="#4D2959"/>
<path d="M10.9907 52.8828H11.5927L14.1723 59H13.2582L12.6386 57.4619H9.92279L9.30756 59H8.41107L10.9907 52.8828ZM12.3574 56.7588L11.2851 54.0781L10.2084 56.7588H12.3574ZM14.9855 52.4609H15.8644V57.2817C15.8644 57.8618 15.9962 58.2031 16.2599 58.3057C16.3478 58.3408 16.4415 58.3584 16.5411 58.3584C16.6407 58.3584 16.7301 58.3467 16.8092 58.3232V59L16.6466 59.0176C16.5939 59.0234 16.5426 59.0264 16.4928 59.0264C15.9303 59.0264 15.5245 58.8418 15.2755 58.4727C15.0821 58.1826 14.9855 57.7871 14.9855 57.2861V52.4609ZM19.7405 59.0703C18.0823 59.0703 17.2532 58.2603 17.2532 56.6401C17.2532 55.9429 17.4832 55.3848 17.9432 54.9658C18.3562 54.585 18.8279 54.3945 19.3582 54.3945C19.9354 54.3945 20.3865 54.5879 20.7117 54.9746C21.0135 55.335 21.1644 55.8169 21.1644 56.4204V56.7632H18.1673C18.1673 57.5923 18.5057 58.0991 19.1824 58.2837C19.3436 58.3276 19.5911 58.3496 19.9251 58.3496C20.262 58.3496 20.5916 58.3042 20.9139 58.2134V58.9561C20.5916 59.0322 20.2005 59.0703 19.7405 59.0703ZM20.2854 56.1172C20.2854 55.8359 20.2078 55.5986 20.0525 55.4053C19.8709 55.1826 19.6204 55.0713 19.3011 55.0713C18.9642 55.0713 18.6902 55.1782 18.4793 55.3921C18.2859 55.5913 18.1893 55.833 18.1893 56.1172H20.2854ZM23.0234 56.7236L21.4634 54.4648H22.4609L23.542 56.104L24.6977 54.4648H25.6821L23.9946 56.7192L25.6426 59H24.6494L23.4936 57.3477L22.3598 59H21.3623L23.0234 56.7236ZM26.4821 58.1914C26.3854 58.0244 26.3078 57.8281 26.2492 57.6025C26.1935 57.377 26.1657 57.0825 26.1657 56.7192C26.1657 56.356 26.2433 56.022 26.3986 55.7173C26.5568 55.4097 26.7619 55.1577 27.0138 54.9614C27.5031 54.5835 28.111 54.3945 28.8376 54.3945C29.2155 54.3945 29.5011 54.4033 29.6945 54.4209C29.6945 54.4209 29.8366 54.4355 30.1208 54.4648V59H29.3297L29.2946 58.4771C29.1188 58.7114 28.8507 58.8857 28.4904 59C28.3527 59.0439 28.2106 59.0659 28.0641 59.0659C27.9206 59.0659 27.7785 59.0513 27.6379 59.022C27.4972 58.9927 27.3566 58.9443 27.216 58.877C27.0783 58.8096 26.9464 58.7202 26.8205 58.6089C26.6945 58.4946 26.5817 58.3555 26.4821 58.1914ZM29.2419 55.1108C29.0544 55.0874 28.8669 55.0757 28.6794 55.0757C28.4948 55.0757 28.297 55.1094 28.0861 55.1768C27.8752 55.2412 27.695 55.3438 27.5456 55.4844C27.235 55.7773 27.0797 56.2241 27.0797 56.8247C27.0797 57.3931 27.213 57.8135 27.4796 58.0859C27.6818 58.2881 27.925 58.3892 28.2091 58.3892C28.5754 58.3892 28.8771 58.2559 29.1144 57.9893C29.173 57.9219 29.2155 57.8618 29.2419 57.8091V55.1108ZM33.3905 55.1504C32.9539 55.1504 32.5658 55.2983 32.2259 55.5942V59H31.347V54.4648H32.16L32.2215 54.957C32.6991 54.582 33.1927 54.3945 33.7025 54.3945C34.2415 54.3945 34.6371 54.5557 34.889 54.8779C35.1527 55.2178 35.2845 55.7656 35.2845 56.5215V59H34.4056V56.5215C34.4056 55.7949 34.2093 55.3613 33.8167 55.2207C33.6908 55.1738 33.5487 55.1504 33.3905 55.1504ZM37.1084 54.9614C37.3633 54.7651 37.6489 54.6216 37.9654 54.5308C38.2847 54.4399 38.563 54.3945 38.8003 54.3945C39.0376 54.3945 39.2207 54.4004 39.3496 54.4121V52.4609H40.2241V59H39.4375L39.4024 58.4771C39.2237 58.7144 38.9527 58.8901 38.5894 59.0044C38.4487 59.0483 38.3052 59.0703 38.1587 59.0703C38.0152 59.0703 37.8731 59.0557 37.7324 59.0264C37.5918 58.9971 37.4512 58.9487 37.3106 58.8813C37.1729 58.811 37.041 58.7202 36.9151 58.6089C36.7891 58.4946 36.6763 58.3555 36.5767 58.1914C36.3657 57.8311 36.2603 57.4048 36.2603 56.9126C36.2603 56.4204 36.3379 56.022 36.4932 55.7173C36.6514 55.4097 36.8565 55.1577 37.1084 54.9614ZM37.6402 55.4844C37.4907 55.625 37.375 55.8066 37.293 56.0293C37.2139 56.249 37.1743 56.5171 37.1743 56.8335C37.1743 57.147 37.2124 57.4062 37.2886 57.6113C37.3648 57.8135 37.46 57.9717 37.5742 58.0859C37.7764 58.291 38.0196 58.3936 38.3037 58.3936C38.6699 58.3936 38.9732 58.2588 39.2134 57.9893C39.2749 57.9219 39.3189 57.8618 39.3452 57.8091V55.1064L39.2573 55.0977C39.1226 55.0801 38.9614 55.0713 38.7739 55.0713C38.5894 55.0713 38.3916 55.105 38.1807 55.1724C37.9697 55.2368 37.7896 55.3408 37.6402 55.4844ZM44.3728 55.269C44.2116 55.2222 44.0183 55.1987 43.7927 55.1987C43.57 55.1987 43.3869 55.2222 43.2434 55.269C43.0998 55.313 42.9738 55.3672 42.8654 55.4316C42.6662 55.5488 42.5212 55.6807 42.4304 55.8271V59H41.5515V54.4648H42.3952L42.4304 55.0933C42.6501 54.8179 42.9709 54.6113 43.3928 54.4736C43.5451 54.4209 43.7194 54.3945 43.9157 54.3945C44.112 54.3945 44.2644 54.4092 44.3728 54.4385V55.269ZM46.0868 53.1465C46.0868 53.3135 46.0311 53.4424 45.9198 53.5332C45.8114 53.6211 45.6752 53.665 45.5111 53.665C45.3471 53.665 45.2108 53.6211 45.1024 53.5332C44.997 53.4424 44.9442 53.3135 44.9442 53.1465C44.9442 52.9766 44.997 52.8477 45.1024 52.7598C45.2108 52.6719 45.3471 52.6279 45.5111 52.6279C45.6752 52.6279 45.8114 52.6719 45.9198 52.7598C46.0311 52.8477 46.0868 52.9766 46.0868 53.1465ZM45.0585 54.4648H45.9374V59H45.0585V54.4648ZM47.3438 58.1914C47.2471 58.0244 47.1695 57.8281 47.1109 57.6025C47.0552 57.377 47.0274 57.0825 47.0274 56.7192C47.0274 56.356 47.105 56.022 47.2603 55.7173C47.4185 55.4097 47.6236 55.1577 47.8755 54.9614C48.3648 54.5835 48.9727 54.3945 49.6993 54.3945C50.0772 54.3945 50.3629 54.4033 50.5562 54.4209C50.5562 54.4209 50.6983 54.4355 50.9825 54.4648V59H50.1915L50.1563 58.4771C49.9805 58.7114 49.7125 58.8857 49.3521 59C49.2144 59.0439 49.0723 59.0659 48.9258 59.0659C48.7823 59.0659 48.6402 59.0513 48.4996 59.022C48.3589 58.9927 48.2183 58.9443 48.0777 58.877C47.94 58.8096 47.8082 58.7202 47.6822 58.6089C47.5562 58.4946 47.4434 58.3555 47.3438 58.1914ZM50.1036 55.1108C49.9161 55.0874 49.7286 55.0757 49.5411 55.0757C49.3565 55.0757 49.1588 55.1094 48.9478 55.1768C48.7369 55.2412 48.5567 55.3438 48.4073 55.4844C48.0967 55.7773 47.9415 56.2241 47.9415 56.8247C47.9415 57.3931 48.0748 57.8135 48.3414 58.0859C48.5435 58.2881 48.7867 58.3892 49.0709 58.3892C49.4371 58.3892 49.7388 58.2559 49.9761 57.9893C50.0347 57.9219 50.0772 57.8618 50.1036 57.8091V55.1108Z" fill="#4D2959"/>
</svg>
